# xmcd
# 
# Track frame offsets:
#	150
#	17114
#	34458
#	47202
#	59218
#	70224
#	84815
#	94703
#	112781
#	121987
#	133561
#	144042
#
# Disc length: 2091 seconds
#
# Revision: 1
# Processed by: cddbd v1.4PL0 Copyright (c) Steve Scherf et al.
# Submitted via: Audio-CD-Archiv 2.10.438
#
DISCID=9f08290c
DTITLE=Various Artist - I'm A Truck CD3
DYEAR=1900
DGENRE=country
TTITLE0=Roll On - John McRoad
TTITLE1=Convoy - John McRoad
TTITLE2=Me And The Old C.B. - John Mc Road
TTITLE3=Ode To 10-33 - John McRoad
TTITLE4=On The Road Again - John McRoad
TTITLE5=Drivin' My Life Away John McRoad
TTITLE6=Trucker's Way Of Life - John McRoad
TTITLE7=Wolfcreek Pass - John McRoad
TTITLE8=Truck Drivtn' Man - John McRoad
TTITLE9=Happy tracks - Kenny Price
TTITLE10=Movin' On - Trucker John
TTITLE11=Roll Truck Roll - Red Simpson
EXTD=
EXTT0=
EXTT1=
EXTT2=
EXTT3=
EXTT4=
EXTT5=
EXTT6=
EXTT7=
EXTT8=
EXTT9=
EXTT10=
EXTT11=
PLAYORDER=
